<svg width="202" height="202" viewBox="0 0 202 202" fill="none" xmlns="http://www.w3.org/2000/svg">
<path d="M101 45.8035H53.8895C52.1751 45.8035 50.7852 47.1933 50.7852 48.9077V139.075C50.7852 139.075 50.7852 151.719 64.7987 160.942C81.1506 171.704 101 182.808 101 182.808V45.8035Z" fill="#F6F6F6"/>
<path d="M76.5892 106.651C62.6535 106.651 51.3973 95.5233 51.3973 81.8469C51.3973 68.1705 62.6535 57.0431 76.5892 57.0431C78.1659 57.0431 79.7082 57.1855 81.2038 57.4579L71.3165 47.8674C66.4563 48.472 62.0472 49.9261 58.2323 52.1567C48.7994 57.6722 43 67.9359 43 81.8469C43 94.4565 55.4983 112.464 73.6599 112.464C84.0836 112.464 94.4759 105.984 100.372 97.1037L97.9036 95.0735C93.445 102.025 85.574 106.651 76.5892 106.651Z" fill="#307F9F"/>
<path d="M50.6161 139.206V48.9043C50.6161 47.192 52.0151 45.8038 53.7407 45.8038H101V49.2919H54.1313V70.6077C54.1313 70.6077 51.3973 75.4522 51.3973 81.8469C51.3973 88.2416 54.1313 93.0861 54.1313 93.0861V131.435C54.1315 131.442 54.1318 131.455 54.1325 131.474C54.1343 131.526 54.1388 131.621 54.149 131.756C54.1694 132.027 54.2128 132.456 54.3048 133.013C54.489 134.13 54.8656 135.747 55.6333 137.634C57.1561 141.377 60.2463 146.258 66.6171 150.443C74.7498 155.785 83.7735 161.226 90.7809 165.34C93.3348 166.839 95.6168 168.16 97.4848 169.232L101 170.017V183C101 183 99.6977 182.273 97.4848 181.01C91.0439 177.335 76.8883 169.124 64.6768 161.103C50.6161 151.867 50.6161 139.206 50.6161 139.206Z" fill="#307F9F"/>
<path d="M91.2357 104.713L101 94.2488V115.177L91.2357 104.713Z" fill="#307F9F"/>
<path d="M43.9764 21L101 76.0335L101 98.1244L50.6162 56.6555C50.6162 56.6555 45.1481 52.3924 44.5623 48.5168C43.9764 44.6412 43.9764 39.0215 43.9764 39.0215L43.9764 21Z" fill="#307F9F"/>
<path d="M92.4074 133.005L101 120.603V145.407L92.4074 133.005Z" fill="#307F9F"/>
<path d="M88.1111 135.718L79.5185 148.12L88.1111 160.522L96.7037 148.12L88.1111 135.718Z" fill="#307F9F"/>
<path d="M75.2222 120.603L66.6296 133.005L75.2222 145.407L83.8148 133.005L75.2222 120.603Z" fill="#307F9F"/>
<path d="M63.5051 84.366C63.5051 89.8241 67.9641 94.2488 73.4646 94.2488C78.9652 94.2488 83.4242 89.8241 83.4242 84.366C83.4242 78.9079 78.9652 74.4833 73.4646 74.4833C67.9641 74.4833 63.5051 78.9079 63.5051 84.366Z" fill="#307F9F"/>
<path d="M101 45.8035H148.111C149.825 45.8035 151.215 47.1933 151.215 48.9077V139.075C151.215 139.075 151.215 151.719 137.201 160.942C120.849 171.704 101 182.808 101 182.808V45.8035Z" fill="#F7F7F7"/>
<path d="M125.411 106.651C139.347 106.651 150.603 95.5233 150.603 81.8469C150.603 68.1705 139.347 57.0431 125.411 57.0431C123.834 57.0431 122.292 57.1855 120.796 57.4579L130.684 47.8674C135.544 48.472 139.953 49.9261 143.768 52.1567C153.201 57.6722 159 67.9359 159 81.8469C159 94.4565 146.502 112.464 128.34 112.464C117.916 112.464 107.524 105.984 101.628 97.1037L104.096 95.0735C108.555 102.025 116.426 106.651 125.411 106.651Z" fill="#266884"/>
<path d="M151.384 139.206V48.9043C151.384 47.192 149.985 45.8038 148.259 45.8038H101V49.2919H147.869V70.6077C147.869 70.6077 150.603 75.4522 150.603 81.8469C150.603 88.2416 147.869 93.0861 147.869 93.0861V131.435C147.869 131.442 147.868 131.455 147.868 131.474C147.866 131.526 147.861 131.621 147.851 131.756C147.831 132.027 147.787 132.456 147.695 133.013C147.511 134.13 147.134 135.747 146.367 137.634C144.844 141.377 141.754 146.258 135.383 150.443C127.25 155.785 118.227 161.226 111.219 165.34C108.665 166.839 106.383 168.16 104.515 169.232L101 170.017V183C101 183 102.302 182.273 104.515 181.01C110.956 177.335 125.112 169.124 137.323 161.103C151.384 151.867 151.384 139.206 151.384 139.206Z" fill="#266884"/>
<path d="M110.764 104.713L101 94.2488V115.177L110.764 104.713Z" fill="#266884"/>
<path d="M158.024 21L101 76.0335L101 98.1244L151.384 56.6555C151.384 56.6555 156.852 52.3924 157.438 48.5168C158.024 44.6412 158.024 39.0215 158.024 39.0215L158.024 21Z" fill="#266884"/>
<path d="M109.593 133.005L101 120.603V145.407L109.593 133.005Z" fill="#266884"/>
<path d="M113.889 135.718L122.481 148.12L113.889 160.522L105.296 148.12L113.889 135.718Z" fill="#266884"/>
<path d="M126.778 120.603L135.37 133.005L126.778 145.407L118.185 133.005L126.778 120.603Z" fill="#266884"/>
<path d="M138.495 84.366C138.495 89.8241 134.036 94.2488 128.535 94.2488C123.035 94.2488 118.576 89.8241 118.576 84.366C118.576 78.9079 123.035 74.4833 128.535 74.4833C134.036 74.4833 138.495 78.9079 138.495 84.366Z" fill="#266884"/>
</svg>
